# File created by Blade
# Date/Time:  Wed Jan 21 19:13:57 2015
# Frame Rate: 120.000 fps
#------------------------------------------------------
:FULLY-SPECIFIED
:DEGREES
688
root -0.872169 33.650517 1.127012 32.481572 73.765307 -75.132043
RightUpLeg 6.966007 -6.393423 -38.022638
RightLeg 58.348389 -0.000000 -0.000000
RightFoot 33.205903 -17.589837 14.192094
RightToeBase 48.261944 -0.000000 -0.000000
LeftUpLeg -89.777417 18.755521 1.570995
LeftLeg -12.004400 -0.000000 0.000000
LeftFoot -0.200197 2.204413 4.453925
LeftToeBase -5.137642 -0.000000 0.000000
Spine -68.310070 0.475240 19.252590
RightShoulder -32.775825 5.626544 -30.423047
RightArm -13.641739 -31.496851 46.260844
RightForeArm -13.425475 -0.000000 0.156249
RightHand 12.843165 0.000000 13.820217
RightHandThumb1 -24.326973 -0.000000 -32.862282
LeftShoulder -12.747413 -0.281739 40.298211
LeftArm 31.153386 -2.873559 -72.229870
LeftForeArm 37.462677 -0.000000 54.576440
LeftHand -28.272664 -0.000000 12.815996
LeftHandThumb1 -26.253704 0.000000 33.147579
Head -19.515421 19.175363 37.967516
689
root -0.677225 33.657007 1.159955 32.751733 73.904473 -73.926661
RightUpLeg 6.263773 -6.697352 -38.106285
RightLeg 57.870684 -0.000000 -0.000000
RightFoot 35.138610 -15.957354 12.939905
RightToeBase 47.891609 -0.000000 -0.000000
LeftUpLeg -88.604197 18.413532 1.512288
LeftLeg -11.862313 -0.000000 0.000000
LeftFoot -0.189177 1.929366 4.647411
LeftToeBase -5.153186 -0.000000 0.000000
Spine -67.884291 0.562788 19.186551
RightShoulder -32.743615 5.541243 -30.268032
RightArm -13.305656 -30.271361 46.763965
RightForeArm -12.938151 -0.000000 -0.003898
RightHand 13.362277 -0.000000 13.369179
RightHandThumb1 -24.326973 -0.000000 -32.862282
LeftShoulder -12.790943 -0.010765 39.809392
LeftArm 30.165513 -0.985364 -73.838675
LeftForeArm 37.455147 -0.000000 53.657537
LeftHand -27.775129 -0.000000 12.570776
LeftHandThumb1 -26.253704 0.000000 33.147579
Head -18.485039 18.316863 37.890873
690
root -0.480282 33.666199 1.202524 32.936573 74.059453 -72.802393
RightUpLeg 5.579624 -7.255758 -38.060387
RightLeg 57.050900 -0.000000 -0.000000
RightFoot 36.597016 -14.177574 11.192715
RightToeBase 47.833884 -0.000000 -0.000000
LeftUpLeg -87.393698 18.096749 1.591764
LeftLeg -11.680834 -0.000000 0.000000
LeftFoot 0.021739 1.892962 4.406638
LeftToeBase -5.896755 -0.000000 0.000000
Spine -67.425827 0.605695 19.088641
RightShoulder -32.787341 5.579660 -30.169928
RightArm -13.030920 -29.888279 47.526910
RightForeArm -11.855074 0.000000 -0.216856
RightHand 13.224297 -0.000000 12.530597
RightHandThumb1 -24.326973 -0.000000 -32.862282
LeftShoulder -12.821617 0.249458 39.403667
LeftArm 29.214304 0.957015 -75.350932
LeftForeArm 37.238016 -0.000000 52.664045
LeftHand -27.461633 -0.000000 12.679590
LeftHandThumb1 -26.253704 0.000000 33.147579
Head -17.571431 17.385297 37.953692
691
root -0.285264 33.684001 1.253436 33.021830 74.187684 -71.796181
RightUpLeg 4.903540 -7.756506 -37.857672
RightLeg 55.429622 -0.000000 -0.000000
RightFoot 38.035967 -12.509184 10.121399
RightToeBase 48.862400 -0.000000 -0.000000
LeftUpLeg -86.252942 17.847364 1.628859
LeftLeg -11.436039 -0.000000 0.000000
LeftFoot 0.108920 1.674849 4.402061
LeftToeBase -6.025540 -0.000000 0.000000
Spine -66.920443 0.648674 18.932609
RightShoulder -32.778454 5.560305 -29.919724
RightArm -12.647810 -28.586989 47.980605
RightForeArm -11.140449 -0.000000 -0.167424
RightHand 12.499984 -0.000000 12.413148
RightHandThumb1 -24.326973 -0.000000 -32.862282
LeftShoulder -12.895792 0.474660 39.040597
LeftArm 28.386032 3.041815 -76.694941
LeftForeArm 37.076200 0.000000 51.515752
LeftHand -27.310323 -0.000000 12.883251
LeftHandThumb1 -26.253704 0.000000 33.147579
Head -16.762286 16.481034 38.086427
692
root -0.094222 33.710914 1.313769 32.832545 74.276044 -71.128094
RightUpLeg 4.208489 -7.685920 -37.500811
RightLeg 53.251528 -0.000000 -0.000000
RightFoot 38.807275 -11.307468 12.021785
RightToeBase 49.273127 -0.000000 -0.000000
LeftUpLeg -85.219352 17.710135 1.643138
LeftLeg -11.163324 -0.000000 0.000000
LeftFoot 0.341763 1.339562 4.140362
LeftToeBase -6.480862 -0.000000 0.000000
Spine -66.399712 0.729501 18.770899
RightShoulder -32.824270 5.620703 -29.642383
RightArm -12.126521 -28.002021 48.588908
RightForeArm -9.549806 -0.000000 -0.565703
RightHand 11.747868 -0.000000 12.549278
RightHandThumb1 -24.326973 -0.000000 -32.862282
LeftShoulder -12.840359 0.519794 38.856742
LeftArm 27.293888 5.074297 -78.059600
LeftForeArm 37.116003 -0.000000 50.439029
LeftHand -27.162050 -0.000000 12.915827
LeftHandThumb1 -26.253704 0.000000 33.147579
Head -16.100980 15.460051 38.357069
693
root 0.095308 33.745919 1.376926 32.635490 74.333472 -70.453153
RightUpLeg 3.375407 -7.856485 -37.105697
RightLeg 50.955635 -0.000000 -0.000000
RightFoot 39.002637 -10.516504 13.758409
RightToeBase 49.162215 -0.000000 -0.000000
LeftUpLeg -84.165841 17.597985 1.720750
LeftLeg -10.859018 -0.000000 0.000000
LeftFoot 0.653847 1.151960 3.938428
LeftToeBase -7.067287 -0.000000 0.000000
Spine -65.830504 0.808373 18.549802
RightShoulder -32.906757 5.508347 -29.354092
RightArm -11.317201 -27.179130 49.252267
RightForeArm -8.438707 -0.000000 -1.270123
RightHand 11.059048 -0.000000 12.544242
RightHandThumb1 -24.326973 -0.000000 -32.862282
LeftShoulder -12.732782 0.698717 38.634920
LeftArm 26.444294 6.995436 -79.255180
LeftForeArm 36.894311 -0.000000 49.339911
LeftHand -26.998397 -0.000000 12.596248
LeftHandThumb1 -26.253704 0.000000 33.147579
Head -15.442867 14.564807 38.624736
694
root 0.278954 33.788640 1.448947 32.293579 74.388310 -69.963105
RightUpLeg 2.459019 -8.032740 -36.569519
RightLeg 48.502554 -0.000000 -0.000000
RightFoot 38.679101 -9.759033 15.612918
RightToeBase 48.676190 -0.000000 -0.000000
LeftUpLeg -83.204663 17.533696 1.822196
LeftLeg -10.478365 -0.000000 0.000000
LeftFoot 0.935664 1.008113 3.794456
LeftToeBase -7.401674 -0.000000 0.000000
Spine -65.243675 0.890218 18.318870
RightShoulder -32.752526 5.672568 -29.130087
RightArm -11.095059 -26.357236 50.109263
RightForeArm -7.957410 -0.000000 -1.894960
RightHand 10.390227 -0.000000 13.133245
RightHandThumb1 -24.326973 -0.000000 -32.862282
LeftShoulder -12.524959 0.898042 38.424718
LeftArm 25.609368 8.709020 -80.360936
LeftForeArm 36.802075 -0.000000 48.331487
LeftHand -26.550950 -0.000000 11.824817
LeftHandThumb1 -26.253704 0.000000 33.147579
Head -14.841638 13.605564 38.944397
695
root 0.454459 33.840235 1.531373 31.897482 74.384742 -69.556816
RightUpLeg 1.442182 -8.240101 -35.928422
RightLeg 45.715927 -0.000000 -0.000000
RightFoot 38.177757 -8.738187 16.925546
RightToeBase 49.589034 -0.000000 -0.000000
LeftUpLeg -82.274304 17.551445 1.875661
LeftLeg -10.168330 -0.000000 0.000000
LeftFoot 1.453691 0.763141 3.481385
LeftToeBase -8.244397 -0.000000 0.000000
Spine -64.633382 1.021184 17.969939
RightShoulder -32.439888 5.706610 -28.776240
RightArm -11.063048 -25.560961 51.098992
RightForeArm -8.408567 0.000000 -2.451373
RightHand 10.291396 0.000000 13.480928
RightHandThumb1 -24.326973 -0.000000 -32.862282
LeftShoulder -12.207222 1.202398 38.169074
LeftArm 25.055479 10.257093 -81.306730
LeftForeArm 36.593071 -0.000000 47.308709
LeftHand -26.120560 -0.000000 11.207477
LeftHandThumb1 -26.253704 0.000000 33.147579
Head -14.351193 12.642269 39.302518
696
root 0.625627 33.900120 1.617150 31.689343 74.358347 -68.945200
RightUpLeg 0.283172 -8.511235 -35.259408
RightLeg 43.153129 -0.000000 -0.000000
RightFoot 36.820862 -7.387162 17.722709
RightToeBase 49.973539 -0.000000 -0.000000
LeftUpLeg -81.434079 17.576479 1.747978
LeftLeg -9.696240 -0.000000 0.000000
LeftFoot 1.701411 0.575529 3.738987
LeftToeBase -8.206073 -0.000000 0.000000
Spine -63.956314 1.104357 17.537665
RightShoulder -32.151287 5.892369 -28.452843
RightArm -11.249144 -25.065128 52.162901
RightForeArm -9.145824 -0.000000 -2.822951
RightHand 10.428330 0.000000 13.575381
RightHandThumb1 -24.326973 -0.000000 -32.862282
LeftShoulder -11.861914 1.501422 37.963427
LeftArm 24.562795 11.748726 -82.151347
LeftForeArm 36.510787 -0.000000 46.276437
LeftHand -25.747141 0.000000 10.767522
LeftHandThumb1 -26.253704 0.000000 33.147579
Head -13.961381 11.727531 39.703756
697
root 0.789158 33.964742 1.704551 31.563193 74.273764 -68.263491
RightUpLeg -1.093657 -8.845689 -34.619049
RightLeg 41.082518 -0.000000 -0.000000
RightFoot 34.303485 -5.636030 18.491835
RightToeBase 49.602723 -0.000000 -0.000000
LeftUpLeg -80.593678 17.620772 1.699488
LeftLeg -9.228784 -0.000000 0.000000
LeftFoot 2.224024 0.452075 3.515107
LeftToeBase -8.949946 -0.000000 0.000000
Spine -63.225267 1.208617 17.023992
RightShoulder -31.787545 5.967083 -28.025392
RightArm -11.500224 -25.108217 53.376369
RightForeArm -8.392023 -0.000000 -3.177170
RightHand 10.872603 -0.000000 13.538435
RightHandThumb1 -24.326973 -0.000000 -32.862282
LeftShoulder -11.512228 1.770152 37.751417
LeftArm 24.151092 13.263380 -82.789870
LeftForeArm 36.221855 0.000000 45.349741
LeftHand -25.481140 -0.000000 10.836979
LeftHandThumb1 -26.253704 0.000000 33.147579
Head -13.691309 10.838106 40.126108
698
root 0.942948 34.034927 1.796719 31.695506 74.148433 -67.330165
RightUpLeg -2.605853 -9.297642 -34.015247
RightLeg 39.248939 -0.000000 -0.000000
RightFoot 31.282623 -3.782744 19.264415
RightToeBase 49.274121 -0.000000 -0.000000
LeftUpLeg -79.801485 17.678538 1.569830
LeftLeg -8.712322 -0.000000 0.000000
LeftFoot 2.719634 0.402658 3.360363
LeftToeBase -9.608678 -0.000000 0.000000
Spine -62.461181 1.303146 16.397881
RightShoulder -31.405719 6.058682 -27.658095
RightArm -12.013354 -24.799421 54.617345
RightForeArm -7.542973 0.000000 -3.059959
RightHand 11.539801 -0.000000 12.700805
RightHandThumb1 -24.326973 -0.000000 -32.862282
LeftShoulder -11.158735 2.074130 37.561844
LeftArm 23.917278 14.842284 -83.188018
LeftForeArm 35.954232 -0.000000 44.505458
LeftHand -25.422350 -0.000000 10.457962
LeftHandThumb1 -26.253704 0.000000 33.147579
Head -13.504739 10.002090 40.493856
699
root 1.093666 34.105605 1.893913 31.952201 73.999760 -66.263314
RightUpLeg -4.267253 -9.834771 -33.341388
RightLeg 37.551706 -0.000000 -0.000000
RightFoot 28.364817 -2.210768 19.797169
RightToeBase 48.914509 -0.000000 -0.000000
LeftUpLeg -79.022929 17.746538 1.312965
LeftLeg -8.238661 -0.000000 0.000000
LeftFoot 3.120842 0.345224 3.696447
LeftToeBase -9.651770 -0.000000 0.000000
Spine -61.654264 1.375655 15.740759
RightShoulder -31.072762 5.787602 -27.100888
RightArm -12.094288 -23.993186 55.582492
RightForeArm -6.335368 -0.000000 -2.753756
RightHand 12.421687 -0.000000 11.800221
RightHandThumb1 -24.326973 -0.000000 -32.862282
LeftShoulder -10.796048 2.293041 37.405768
LeftArm 23.631951 16.404969 -83.484407
LeftForeArm 35.599885 -0.000000 43.745556
LeftHand -25.346894 -0.000000 10.730931
LeftHandThumb1 -26.253704 0.000000 33.147579
Head -13.356138 9.285840 40.810746
700
root 1.238925 34.179401 1.995217 32.229006 73.797798 -65.200714
RightUpLeg -6.146456 -10.293661 -32.570892
RightLeg 36.091076 -0.000000 -0.000000
RightFoot 25.598555 -1.080883 20.638885
RightToeBase 48.388696 -0.000000 -0.000000
LeftUpLeg -78.290665 17.860009 1.058275
LeftLeg -7.716190 -0.000000 0.000000
LeftFoot 3.666606 0.249983 3.943285
LeftToeBase -10.248862 -0.000000 0.000000
Spine -60.816353 1.485224 15.072337
RightShoulder -30.794626 5.590857 -26.646016
RightArm -12.338810 -22.785596 56.458136
RightForeArm -5.017284 -0.000000 -1.924073
RightHand 12.932993 -0.000000 10.526241
RightHandThumb1 -24.326973 -0.000000 -32.862282
LeftShoulder -10.444164 2.487400 37.242589
LeftArm 23.374230 17.906614 -83.626008
LeftForeArm 35.285650 -0.000000 43.205334
LeftHand -25.373813 -0.000000 10.815118
LeftHandThumb1 -26.253704 0.000000 33.147579
Head -13.257550 8.636725 41.106370
